<svg id="Capa_1" enable-background="new 0 0 512 512" height="512" viewBox="0 0 512 512" width="512" xmlns="http://www.w3.org/2000/svg"><g><path d="m434.016 321.804c29.272-34.119 46.984-78.43 46.984-126.804 0-107.523-87.477-195-195-195-48.374 0-92.684 17.713-126.803 46.984l-32.297-32.296c-5.857-5.857-15.355-5.858-21.213 0-48.163 48.163-74.687 112.199-74.687 180.312s26.524 132.149 74.688 180.312c44.61 44.61 102.841 70.639 165.312 74.239v32.449h-75c-8.284 0-15 6.716-15 15s6.716 15 15 15h180c8.284 0 15-6.716 15-15s-6.716-15-15-15h-75v-32.449c62.471-3.6 120.702-29.629 165.312-74.239 5.858-5.858 5.858-15.355 0-21.213zm-294.964-201.804h49.731c-4.119 18.926-6.659 39.14-7.483 60h-59.611c1.941-21.435 7.987-41.704 17.363-60zm311.259 60h-59.611c-.824-20.86-3.365-41.074-7.483-60h49.731c9.376 18.296 15.422 38.565 17.363 60zm-179.311 120v56.266c-12.743-6.303-25.067-20.382-35.224-40.695-2.47-4.94-4.767-10.141-6.888-15.571zm-51.464-30c-4.521-18.614-7.313-38.883-8.212-60h59.676v60zm81.464 86.266v-56.266h42.112c-2.121 5.43-4.418 10.631-6.888 15.571-10.157 20.312-22.481 34.392-35.224 40.695zm0-86.266v-60h59.676c-.899 21.117-3.691 41.386-8.212 60zm89.7-60h59.611c-1.941 21.435-7.987 41.704-17.363 60h-49.731c4.118-18.926 6.659-39.14 7.483-60zm-30.024-30h-59.676v-60h51.464c4.521 18.614 7.313 38.883 8.212 60zm-59.676-90v-56.266c12.743 6.303 25.067 20.382 35.224 40.695 2.47 4.94 4.767 10.141 6.888 15.571zm-30-56.266v56.266h-42.112c2.121-5.43 4.418-10.631 6.888-15.571 10.157-20.312 22.481-34.392 35.224-40.695zm0 86.266v60h-59.676c.899-21.117 3.691-41.386 8.212-60zm-89.7 90c.824 20.86 3.365 41.074 7.483 60h-49.731c-9.376-18.296-15.422-38.565-17.363-60zm15.7 90c3.459 10.29 7.449 19.998 11.944 28.987 2.948 5.895 6.071 11.384 9.347 16.472-23.152-10.459-43.475-26.11-59.477-45.459zm166.057 28.987c4.495-8.989 8.485-18.698 11.944-28.987h38.186c-16.002 19.349-36.325 35-59.476 45.459 3.275-5.088 6.398-10.577 9.346-16.472zm50.129-238.987h-38.186c-3.459-10.29-7.449-19.998-11.944-28.987-2.948-5.895-6.071-11.384-9.347-16.472 23.152 10.459 43.475 26.11 59.477 45.459zm-194.896-45.459c-3.276 5.088-6.399 10.577-9.347 16.472-4.494 8.989-8.485 18.697-11.943 28.987h-38.186c16.002-19.349 36.325-35 59.476-45.459zm67.71 375.459c-60.1 0-116.603-23.404-159.1-65.901-84.161-84.162-87.576-218.964-10.257-307.242l21.34 21.339c-29.271 34.119-46.983 78.43-46.983 126.804 0 107.523 87.477 195 195 195 48.374 0 92.685-17.713 126.803-46.984l21.343 21.343c-41.023 35.991-93.072 55.641-148.146 55.641z"/></g></svg>