<svg xmlns="http://www.w3.org/2000/svg" viewBox="0 0 54 72" width="54" height="72">
	<style>
		tspan { white-space:pre }
		.shp0 { fill: #f6f6f6 } 
	</style>
	<g id="Header">
		<path id="Logo" fill-rule="evenodd" class="shp0" d="M29.71 52.98C29.21 58.54 28.17 63.43 26.3 67.7C25.67 69.11 24.54 70.46 24.02 72C23.94 72 23.86 72 23.79 72C23.79 71.62 23.79 71.24 23.79 70.87C24.22 70.2 24.01 69.29 24.24 68.38C25.37 64.02 25.46 58.21 23.56 54.57C20.32 48.34 13.83 50.44 7.38 47.77C4.85 46.73 2.99 44.58 1.68 42.34C1.22 41.06 0.77 39.77 0.31 38.49C-0.4 35.78 0.25 32.29 1 30.34C4.1 22.21 11.87 18.63 21.28 23.09C21.28 22.87 21.28 22.64 21.28 22.41C20.47 21.32 20.74 19.68 20.37 18.11C19.38 13.89 18.62 0.05 23.33 0C24.61 0.93 27.06 0.88 27.21 2.94C26.83 3.35 26.81 3.51 26.75 4.3C26.83 4.3 26.9 4.3 26.98 4.3C26.98 4.23 26.98 4.15 26.98 4.08C27.96 3.04 28.23 0.7 29.94 0.45C31.31 1.67 33.63 1.92 34.04 4.08C32.9 5.52 31.78 8.05 31.31 9.96C31.46 9.96 31.61 9.96 31.76 9.96C33.19 8.08 39.08 2.71 41.79 3.17C42.6 4.46 43.43 5.74 43.84 7.47C42.41 7.98 41.75 9.37 40.65 10.19C36.65 13.19 33.42 17.56 30.85 21.96C31.08 21.96 31.31 21.96 31.54 21.96C33.11 20.74 39.51 20.15 42.25 20.83C49.47 22.62 51.5 25.1 53.19 32.38C53.42 33.39 53.73 35.77 53.42 37.13C51.23 46.57 46.63 51.34 37.01 53.43C34.44 53.99 31.87 53.1 29.71 52.98Z" />
	</g>
</svg>